<?xml version="1.0" encoding="UTF-8"?>
<svg version="1.1" xmlns="http://www.w3.org/2000/svg" width="500" height="500">
<path d="M0 0 C165 0 330 0 500 0 C500 165 500 330 500 500 C335 500 170 500 0 500 C0 335 0 170 0 0 Z " fill="#000000" transform="translate(0,0)"/>
<path d="M0 0 C30.27875547 0 30.27875547 0 40.1081543 8.45697021 C43.70705382 11.39230958 47.67358014 13.79654649 51.578125 16.30078125 C53.31459817 17.43851068 55.04967654 18.57837142 56.78344727 19.72021484 C57.67428009 20.30550964 58.56511292 20.89080444 59.48294067 21.49383545 C78.07122812 33.71108685 96.56428737 46.06180696 114.97558594 58.54418945 C115.835728 59.12667953 116.69587006 59.70916962 117.58207703 60.30931091 C119.1628197 61.38010089 120.74268226 62.45219211 122.32136536 63.52601624 C128.14748306 67.47291208 134.05496338 71.21679488 140 75 C140.495 37.875 140.495 37.875 141 0 C149.91 0 158.82 0 168 0 C168 70.29 168 140.58 168 213 C159.09 213 150.18 213 141 213 C141.04825928 209.81625732 141.09651855 206.63251465 141.14624023 203.35229492 C141.29505682 192.80721966 141.36073874 182.26278955 141.38603115 171.71673107 C141.4038937 165.32501361 141.44932831 158.93602239 141.55883789 152.54516602 C141.66359263 146.37157393 141.69453015 140.20153146 141.67534065 134.0271244 C141.68080816 131.67753705 141.71241444 129.32785391 141.77114677 126.97899437 C142.51142314 114.9195603 142.51142314 114.9195603 138.52738762 103.94725037 C135.0479929 100.50683295 131.13628155 98.10151268 126.78226376 95.916646 C124.36574528 94.67379292 122.20702248 93.13384679 120.01171875 91.5390625 C118.57171413 90.56563167 117.13032191 89.59425013 115.6875 88.625 C108.34784711 83.65156356 101.12305334 78.53969063 93.96166992 73.31298828 C90.03059368 70.44681585 86.07062548 67.66475797 82 65 C81.82608231 65.60730957 81.65216461 66.21461914 81.47297668 66.84033203 C79.68231495 72.96583698 77.61628697 78.92097651 75.32421875 84.875 C74.96652908 85.81301956 74.60883942 86.75103912 74.24031067 87.71748352 C73.05922387 90.81288199 71.87330423 93.90640601 70.6875 97 C69.84855176 99.19670349 69.01001919 101.39356577 68.171875 103.59057617 C66.84448205 107.06983292 65.51679689 110.54897559 64.18783569 114.02763367 C59.40593496 126.54534212 54.65466901 139.0746117 49.90542603 151.60473633 C48.54628037 155.19040416 47.18669255 158.77590394 45.8269043 162.36132812 C45.1778437 164.07290604 45.1778437 164.07290604 44.51567078 165.81906128 C43.65832759 168.07937277 42.80067708 170.33956771 41.94270325 172.59963989 C39.85975198 178.0879772 37.78092057 183.57780172 35.71303558 189.0718317 C34.69282265 191.78159661 33.67060802 194.49060432 32.64820862 197.19954491 C32.15620386 198.5048386 31.66517529 199.81050069 31.17515564 201.11654091 C30.49745709 202.92260231 29.81620111 204.72732766 29.13476562 206.53198242 C28.74599243 207.5654631 28.35721924 208.59894379 27.95666504 209.66374207 C27 212 27 212 26 213 C17.42 213 8.84 213 0 213 C0 142.71 0 72.42 0 0 Z " fill="#FCFCFC" transform="translate(166,87)"/>
<path d="M0 0 C17.16 0 34.32 0 52 0 C52 4.29 52 8.58 52 13 C39.13 13 26.26 13 13 13 C13 15.31 13 17.62 13 20 C25.87 20 38.74 20 52 20 C52 24.29 52 28.58 52 33 C39.13 33 26.26 33 13 33 C13 35.31 13 37.62 13 40 C25.87 40 38.74 40 52 40 C52 43.96 52 47.92 52 52 C34.84 52 17.68 52 0 52 C0 34.84 0 17.68 0 0 Z " fill="#F3F3F3" transform="translate(170,360)"/>
<path d="M0 0 C3.55066992 1.42026797 6.21629475 2.62165608 9.36328125 4.609375 C10.16830078 5.11726563 10.97332031 5.62515625 11.80273438 6.1484375 C12.63095703 6.67695312 13.45917969 7.20546875 14.3125 7.75 C15.12912109 8.26304688 15.94574219 8.77609375 16.78710938 9.3046875 C22.04798902 12.64146853 27.06602925 16.19888632 32 20 C30.67669805 26.59739168 28.81056998 32.70286189 26.4375 38.9921875 C26.08965958 39.92845978 25.74181915 40.86473206 25.38343811 41.82937622 C24.26107401 44.84664704 23.13059276 47.8608041 22 50.875 C21.22655186 52.95030465 20.45368639 55.02582655 19.68139648 57.1015625 C18.1576028 61.19480442 16.6308631 65.28692464 15.10107422 69.37792969 C12.83405196 75.44111898 10.57873838 81.50859342 8.33007812 87.57861328 C7.51134172 89.78850774 6.69113344 91.9978577 5.86914062 94.20654297 C4.16977393 98.78181987 2.49897539 103.35396109 1 108 C0.67 108 0.34 108 0 108 C0 72.36 0 36.72 0 0 Z " fill="#050505" transform="translate(192,117)"/>
<path d="M0 0 C16.83 0 33.66 0 51 0 C51 3.96 51 7.92 51 12 C38.13 12 25.26 12 12 12 C12 20.91 12 29.82 12 39 C25.2 39 38.4 39 52 39 C52 42.96 52 46.92 52 51 C34.84 51 17.68 51 0 51 C0 34.17 0 17.34 0 0 Z " fill="#FCFCFC" transform="translate(278,361)"/>
<path d="M0 0 C3.96 0 7.92 0 12 0 C12 6.27 12 12.54 12 19 C20.91 19 29.82 19 39 19 C39 12.73 39 6.46 39 0 C42.96 0 46.92 0 51 0 C51 16.83 51 33.66 51 51 C47.04 51 43.08 51 39 51 C39 44.4 39 37.8 39 31 C30.09 31 21.18 31 12 31 C12 37.6 12 44.2 12 51 C8.04 51 4.08 51 0 51 C0 34.17 0 17.34 0 0 Z " fill="#FDFDFD" transform="translate(386,361)"/>
<path d="M0 0 C16.83 0 33.66 0 51 0 C51 3.96 51 7.92 51 12 C44.73 12 38.46 12 32 12 C32 24.87 32 37.74 32 51 C27.71 51 23.42 51 19 51 C19 38.13 19 25.26 19 12 C12.73 12 6.46 12 0 12 C0 8.04 0 4.08 0 0 Z " fill="#F5F5F5" transform="translate(63,361)"/>
</svg>
